# xmcd
#
# Track frame offsets:
#	150
#	25790
#	52364
#	72807
#	103695
#	142266
#
# Disc length: 2099 seconds
#
# Revision: 2
# Processed by: cddbd v1.5.1PL2 Copyright (c) Steve Scherf et al.
# Submitted via: EasyCDDAExtractor 8.0.2.1
#
DISCID=59083106
DTITLE=Dio - Planit Music Vienna 22-05-00 Disc 2
DYEAR=2000
DGENRE=Hard Rock
TTITLE0=Holy Diver
TTITLE1=Rainbow In The Dark
TTITLE2=The Mob Rules
TTITLE3=The Last In Line
TTITLE4=Man On The Silver Mountain - Long Live Rock and Roll
TTITLE5=We Rock
EXTD=
EXTT0=
EXTT1=
EXTT2=
EXTT3=
EXTT4=
EXTT5=
PLAYORDER=
